<?xml version="1.0" encoding="utf-8"?>
<!-- Generator: Adobe Illustrator 18.1.1, SVG Export Plug-In . SVG Version: 6.00 Build 0)  -->
<svg version="1.1" xmlns="http://www.w3.org/2000/svg" xmlns:xlink="http://www.w3.org/1999/xlink" x="0px" y="0px"
	 viewBox="-49 141 512 512" enable-background="new -49 141 512 512" xml:space="preserve">
<g id="Layer_4" display="none">
	<g display="inline">
		<path fill="#FFFFFF" d="M172.9,614.7C68.2,598.3-12.1,507.7-12.1,398.3c0-121,98.1-219.1,219.1-219.1s219.1,98.1,219.1,219.1
			c0,109.3-80.2,200-184.9,216.4"/>
	</g>
</g>
<g id="Layer_6" display="none">
	<g display="inline">
		<path fill="#2F2D16" d="M463,398.6c0,127.8-93.7,233.7-216.1,252.9V473.1h59.5l11.3-73.8h-70.8v-47.9c0-20.2,9.9-39.9,41.6-39.9
			h32.2v-62.8c0,0-29.2-5-57.2-5c-58.3,0-96.4,35.3-96.4,99.3v56.3h-64.8V473h64.8v178.4C44.8,632.2-49,526.3-49,398.6
			c0-141.4,114.6-256,256-256S463,257.2,463,398.6z"/>
	</g>
</g>
<defs>
	<filter id="Adobe_OpacityMaskFilter" filterUnits="userSpaceOnUse" x="-20.2" y="164.4" width="454.4" height="465.2">
		
			<feColorMatrix  type="matrix" values="-1 0 0 0 1  0 -1 0 0 1  0 0 -1 0 1  0 0 0 1 0" color-interpolation-filters="sRGB" result="source"/>
		<feFlood  style="flood-color:white;flood-opacity:1" result="back"/>
		<feBlend  in="source" in2="back" mode="normal"/>
	</filter>
</defs>
<mask maskUnits="userSpaceOnUse" x="-20.2" y="164.4" width="454.4" height="465.2" id="Layer_5_1_">
	<g filter="url(#Adobe_OpacityMaskFilter)">
		<g>
			<path fill="#FFFFFF" d="M434.2,398.4c0,116.8-83.2,213.6-191.8,231.2V466.5h52.8l10.1-67.5h-62.9v-43.8
				c0-18.5,8.8-36.4,36.9-36.4h28.6v-57.4c0,0-25.9-4.6-50.7-4.6c-51.8,0-85.6,32.3-85.6,90.8V399h-57.5v67.5h57.5v163.1
				C63,612-20.2,515.2-20.2,398.4c0-129.2,101.7-234,227.2-234S434.2,269.2,434.2,398.4z"/>
		</g>
	</g>
</mask>
<g id="Layer_5" mask="url(#Layer_5_1_)">
	<g>
		<path fill="#2F2D16" d="M171.6,629.6C63,612-20.2,515.2-20.2,398.4c0-129.2,101.7-234,227.2-234s227.2,104.8,227.2,234
			c0,116.8-83.2,213.6-191.8,231.2"/>
	</g>
</g>
<defs>
	<filter id="Adobe_OpacityMaskFilter_1_" filterUnits="userSpaceOnUse" x="-49" y="142.6" width="512" height="508.9">
		
			<feColorMatrix  type="matrix" values="-1 0 0 0 1  0 -1 0 0 1  0 0 -1 0 1  0 0 0 1 0" color-interpolation-filters="sRGB" result="source"/>
		<feFlood  style="flood-color:white;flood-opacity:1" result="back"/>
		<feBlend  in="source" in2="back" mode="normal"/>
	</filter>
</defs>
<mask maskUnits="userSpaceOnUse" x="-49" y="142.6" width="512" height="508.9" id="Layer_3_1_">
	<g filter="url(#Adobe_OpacityMaskFilter_1_)">
		<g>
			<path fill="#FFFFFF" d="M172.9,614.7C68.2,598.3-12.1,507.7-12.1,398.3c0-121,98.1-219.1,219.1-219.1s219.1,98.1,219.1,219.1
				c0,109.3-80.2,200-184.9,216.4"/>
		</g>
	</g>
</mask>
<g id="Layer_3" mask="url(#Layer_3_1_)">
	<g>
		<path fill="#2F2D16" d="M167.1,651.4C44.8,632.2-49,526.3-49,398.6c0-141.4,114.6-256,256-256s256,114.6,256,256
			c0,127.8-93.7,233.7-216.1,252.9"/>
	</g>
</g>
</svg>
