<?xml version="1.0" encoding="utf-8"?>
<!-- Generator: Adobe Illustrator 18.1.1, SVG Export Plug-In . SVG Version: 6.00 Build 0)  -->
<svg version="1.1" id="Layer_1" xmlns="http://www.w3.org/2000/svg" xmlns:xlink="http://www.w3.org/1999/xlink" x="0px" y="0px"
	 viewBox="0 0 3000 3000" enable-background="new 0 0 3000 3000" xml:space="preserve">
<g>
	<defs>
		<filter id="Adobe_OpacityMaskFilter" filterUnits="userSpaceOnUse" x="851.5" y="119.2" width="1299.1" height="2378.5">
			<feColorMatrix  type="matrix" values="1 0 0 0 0  0 1 0 0 0  0 0 1 0 0  0 0 0 1 0"/>
		</filter>
	</defs>
	<mask maskUnits="userSpaceOnUse" x="851.5" y="119.2" width="1299.1" height="2378.5" id="SVGID_1_">
		<g filter="url(#Adobe_OpacityMaskFilter)">
			<rect x="451.6" y="-46.4" fill="#FFFFFF" width="1005.5" height="2616.1"/>
			<rect x="1544" y="80.8" fill="#FFFFFF" width="1109.4" height="2488.9"/>
		</g>
	</mask>
	<path mask="url(#SVGID_1_)" fill="#2F2C19" d="M1815.1,1389.1l-0.6,650.7l-125.2-0.8l0.5-274l-188,208.1L1334.1,1765v274.8
		l-121.5,0.2l4.3-650.9l284.2,403.2L1815.1,1389.1z M1290,240.7c1.1-3.8,3.9-22,0-32.5c-5-13.4-24.3-12.1-24.3-24.4
		c0-8.1-3.4-56.5-3.4-56.5c-60.8-11.9-130.2-9.8-191.5-0.3v65c-3.2,1.4-17.7,8-24.4,24.4c-1.4,3.6-7.2,17.9,0,32.5
		c4.8,9.7,12.9,14.5,16.2,16.2l8.1,552.1l-219.3,297.2l0.1,1383.3l611.4,0.1V1114.3l-184.1-300.3c-13.3-151-8.7-543.7-5.2-557
		C1277.3,254.1,1286.2,254.3,1290,240.7 M1972.7,245.3c1.1-3.8,3.9-21.9,0-32.3c-4.9-13.3-24.2-12-24.2-24.3
		c0-8.1-3.4-56.3-3.4-56.3c-60.6-11.8-129.7-9.8-190.6-0.3v64.7c-3.2,1.4-17.6,8-24.2,24.3c-1.4,3.6-7.2,17.8,0,32.3
		c4.8,9.7,12.8,14.4,16.2,16.2l8.1,549.7l-215.1,295v1383.2l611.2,0.1l-0.1-1383.3l-188.7-298.2c-13.2-150.4-8.7-541.3-5.1-554.6
		C1960.1,258.7,1969,258.8,1972.7,245.3"/>
	<path fill="#CFBB82" d="M1029.6,401.5c35.2,35.5,114.6,134.9,114.6,134.9l15.5,310.6L928.1,856l-11.7-297.7L1029.6,401.5z"/>
	<path fill="#2F2C19" d="M1071.8,224.3c-30,3.9-76.6,22-76.5,58.5c0,19.1,11,35.3,21,50.7c11.4,17.5,23.7,39.7,13,60.5
		c-1.3,2.5,2.5,4.7,3.7,2.2c17.5-34.1-16.7-63-28.7-91.9c-3.9-9.5-6.2-20.2-3.8-30.4c2.3-9.7,9-17.1,16.6-23.1
		c15.7-12.3,34.9-19.7,54.6-22.2C1074.5,228.2,1074.6,223.9,1071.8,224.3"/>
</g>
<g>
	<path fill="#2F2C19" d="M1109,748.8l1.3,33.9l-130.6,4.8l-8-216.7l34-1.3l6.8,182.8L1109,748.8z"/>
</g>
<g>
	<rect x="833.6" y="2588.9" fill="none" width="1327.9" height="325.3"/>
	<path fill="#2F2C19" d="M1070.4,2583.4V2811h-44.6v-96.7l-63.9,93h-0.3l-64-93v96.7h-44.6v-227.5h2.5l106.3,146.7l106.2-146.7
		H1070.4z"/>
	<path fill="#2F2C19" d="M1243.8,2780H1155l-14.2,31h-48.2l106.1-227.5h1.4l106.2,227.5h-48.3L1243.8,2780z M1226.5,2741.9l-27-59.4
		l-27.1,59.4H1226.5z"/>
	<path fill="#2F2C19" d="M1443.8,2811l-70.7-105v105h-44.6l-0.1-222h72.5c41.5,0,75.5,32,75.5,71.9c0,28.5-17.2,53.4-41,61.8
		l63.1,88.3H1443.8z M1373,2688.9l28.6,0.1c15.2,0.1,28.6-12.1,28.6-28s-13.6-28-28.6-28H1373V2688.9z"/>
	<path fill="#2F2C19" d="M1519.6,2588.9h44.6v222h-44.6V2588.9z"/>
	<path fill="#2F2C19" d="M1736.7,2766.6v44.4h-133.9v-222h44.6v177.7H1736.7z"/>
	<path fill="#2F2C19" d="M1806.4,2632.9v43.4h76.6v44.5h-76.6v45.9h89.3v44.4h-133.9v-222h133.9v43.9H1806.4z"/>
	<path fill="#2F2C19" d="M1918.8,2700.2c0-63.8,51.9-115.8,115.4-115.8c63.5,0,115.6,52.1,115.6,115.8c0,63.2-52.1,115-115.7,115
		C1970.7,2815.2,1918.8,2763.4,1918.8,2700.2z M2104.6,2699.9c0-38.8-31.7-70.5-70.5-70.5c-38.7,0-70.2,31.7-70.2,70.5
		c0,38.6,31.5,70.1,70.2,70.1C2072.9,2770,2104.6,2738.5,2104.6,2699.9z"/>
</g>
</svg>
